<svg xmlns="http://www.w3.org/2000/svg" width="1200" height="630" viewBox="0 0 1200 630">
  <rect width="1200" height="630" fill="#f8fdff"/>
  <circle cx="975" cy="86" r="220" fill="#18d98b" opacity=".18"/>
  <circle cx="128" cy="530" r="240" fill="#0877ff" opacity=".16"/>
  <rect x="84" y="88" width="1032" height="454" rx="44" fill="#fff" stroke="#d8f1ff" stroke-width="4"/>
  <text x="145" y="220" font-family="Arial, sans-serif" font-size="78" font-weight="900" fill="#102033">Scrapping</text>
  <text x="145" y="314" font-family="Arial, sans-serif" font-size="82" font-weight="900" fill="#0877ff">Wallah</text>
  <text x="145" y="386" font-family="Arial, sans-serif" font-size="31" font-weight="700" fill="#4b6475">AC, Battery, Laptop, Accessories, Printers.</text>
  <rect x="145" y="430" width="330" height="78" rx="39" fill="#18d98b"/>
  <text x="198" y="481" font-family="Arial, sans-serif" font-size="30" font-weight="900" fill="#102033">Instant Cash</text>
  <g transform="translate(720 154)">
    <rect x="54" y="120" width="275" height="124" rx="30" fill="#102033"/>
    <rect x="92" y="70" width="138" height="76" rx="18" fill="#0877ff"/>
    <rect x="230" y="96" width="76" height="50" rx="14" fill="#18d98b"/>
    <circle cx="116" cy="258" r="30" fill="#18d98b"/>
    <circle cx="284" cy="258" r="30" fill="#18d98b"/>
    <path d="M60 30h92l-26 31 25 30H58l27-30-25-31Z" fill="#18d98b"/>
    <path d="M174 24c46 8 83 44 91 89" fill="none" stroke="#0877ff" stroke-width="18" stroke-linecap="round"/>
    <path d="m258 82 16 39-43-7" fill="#0877ff"/>
  </g>
</svg>
